PathFileType	4	(X/Y/Z)	walk-thru1-1-TP.trc
DataRate	CameraRate	NumFrames	NumMarkers	Units	OrigDataRate	OrigDataStartFrame	OrigNumFrames
120.00	120.00	       4	60	mm	120.00	1	       514
Frame#	Time	Top.Head			Front.Head			Rear.Head			Jaw			C7			R.Clavicle			L.Clavicle			R.Shoulder			L.Shoulder			R.Scapula			L.Scapula			R.Scap.Inf			R.Biceps.Lateral			R.Elbow			R.Elbow.Medial			R.Forearm			R.Ulna			R.Radius			R.Wrist			R.Thumb.M1			R.Thumb.M2			R.Thumb.M3			R.Finger3.M1			R.Finger3.M2			R.Finger3.M3			L.Biceps.Lateral			L.Elbow			L.Elbow.Medial			L.Forearm			L.Ulna			L.Radius			L.Wrist			L.Thumb.M1			L.Thumb.M2			L.Thumb.M3			L.Finger3.M1			L.Finger3.M2			L.Finger3.M3			V.Sacral			R.ASIS			L.ASIS			R.Thigh			R.Thigh.Front			R.Knee			R.Knee.Medial			R.Shank			R.Ankle			R.Ankle.Medial			R.Heel			R.Toe			R.MedFoot			L.Thigh			L.Knee			L.Knee.Medial			L.Shank			L.Ankle			L.Ankle.Medial			L.Heel			L.Toe			L.MedFoot			V_mid_ASIS			V_R_Knee_JC			V_L_Knee_JC			V_R_Elbow_JC			V_L_Elbow_JC			V_R_Ankle_JC			V_L_Ankle_JC			V_R_Wrist_JC			V_L_Wrist_JC			V_R_ScaTrpz_1stMC_JC			V_R_1stMC_1stPP_JC			V_R_1stPP_1stDP_JC			V_R_LunCap_3rdMC_JC			V_R_3rdMC_3rdPP_JC			V_R_3rdPP_3rdMP_JC			V_R_3rdMP_3rdDP_JC			V_L_ScaTrpz_1stMC_JC			V_L_1stMC_1stPP_JC			V_L_1stPP_1stDP_JC			V_L_LunCap_3rdMC_JC			V_L_3rdMC_3rdPP_JC			V_L_3rdPP_3rdMP_JC			V_L_3rdMP_3rdPP_JC			V_ROOT_JC			V_R_Hip_JC			V_L_Hip_JC			V_R_GlenHum_JC			V_L_GlenHum_JC			V_ForeHead_Ctr			V_Vertex			V_Sagit_Lambdoid_Suture			V_R_FrontoTemp			V_L_FrontoTemporal			V_R_ParietalOccip			V_L_ParietalOcciptal			V_R_Temporal			V_L_Temporal			V_mid_FrontRearHead			V_mid_RLGlenHumCtrs			V_C7_vert			V_C1_vert			V_Mid_Hip			
		X1	Y1	Z1	X2	Y2	Z2	X3	Y3	Z3	X4	Y4	Z4	X5	Y5	Z5	X6	Y6	Z6	X7	Y7	Z7	X8	Y8	Z8	X9	Y9	Z9	X10	Y10	Z10	X11	Y11	Z11	X12	Y12	Z12	X13	Y13	Z13	X14	Y14	Z14	X15	Y15	Z15	X16	Y16	Z16	X17	Y17	Z17	X18	Y18	Z18	X19	Y19	Z19	X20	Y20	Z20	X21	Y21	Z21	X22	Y22	Z22	X23	Y23	Z23	X24	Y24	Z24	X25	Y25	Z25	X26	Y26	Z26	X27	Y27	Z27	X28	Y28	Z28	X29	Y29	Z29	X30	Y30	Z30	X31	Y31	Z31	X32	Y32	Z32	X33	Y33	Z33	X34	Y34	Z34	X35	Y35	Z35	X36	Y36	Z36	X37	Y37	Z37	X38	Y38	Z38	X39	Y39	Z39	X40	Y40	Z40	X41	Y41	Z41	X42	Y42	Z42	X43	Y43	Z43	X44	Y44	Z44	X45	Y45	Z45	X46	Y46	Z46	X47	Y47	Z47	X48	Y48	Z48	X49	Y49	Z49	X50	Y50	Z50	X51	Y51	Z51	X52	Y52	Z52	X53	Y53	Z53	X54	Y54	Z54	X55	Y55	Z55	X56	Y56	Z56	X57	Y57	Z57	X58	Y58	Z58	X59	Y59	Z59	X60	Y60	Z60	

1	0.000	1195.64636	-9.54524	1778.75305	1098.15479	5.71968	1655.79553	1329.29993	-8.69643	1707.75623	1190.98608	6.07507	1482.57910	1421.08337	11.96649	1583.63037	1315.61743	126.10894	1499.75317	1328.75269	-119.50271	1490.40698	1358.18689	235.39310	1492.70105	1388.82507	-218.60330	1492.81799	1479.58203	115.75315	1493.56335	1499.11572	-73.52132	1488.96448	1512.25964	121.29838	1404.59375	1395.46606	273.60855	1354.29517	1461.45374	311.83353	1174.81580	1466.94727	213.86337	1164.35242	1367.43884	300.93259	1107.72778	1426.18872	309.92029	972.64966	1315.62085	290.88498	942.00293	1309.99597	339.08621	919.52643	1291.67407	289.93832	900.29523	1276.59082	273.79630	850.21814	1264.99634	285.68558	800.00598	1278.97778	364.53561	845.46564	1307.50647	325.80032	778.98108	1335.16211	277.54807	811.40234	1458.28296	-236.37253	1351.45190	1531.60571	-237.15747	1185.43127	1530.17493	-142.89011	1166.84583	1454.56555	-247.96428	1097.73767	1529.88538	-261.38937	998.08472	1433.85901	-252.46745	932.02252	1465.43298	-292.81613	901.65564	1420.14014	-254.30333	875.64966	1404.52026	-230.28009	829.19324	1400.33008	-231.56941	778.44684	1451.18359	-305.25476	801.39539	1452.93152	-272.32236	742.41071	1456.29236	-211.95979	745.27045	1545.78284	12.75575	1131.97717	1350.04517	196.19420	1065.72253	1362.73914	-157.68127	1079.65576	1379.53345	179.61223	684.97205	1320.45056	84.29667	583.72113	1365.33899	148.19000	527.08582	1384.40833	38.59499	525.42993	1375.20081	103.95495	309.46088	1474.53296	136.71765	84.96211	1464.39294	33.31483	106.47599	1539.93335	91.09431	49.98321	1305.24097	91.81220	40.37379	1369.28125	56.00771	78.07050	1304.64539	-162.63232	698.76788	1273.32703	-149.97766	550.93005	1279.83533	-37.96672	531.43115	1336.71167	-102.59194	347.18689	1522.78503	-118.34232	157.51427	1465.02161	-29.46906	166.21492	1567.15930	-46.00790	137.94228	1371.88831	-116.76190	67.65716	1408.10803	-72.93176	121.41761																																																																																																																															
2	0.008	1190.64136	-8.85397	1778.78027	1091.79810	5.43106	1655.44824	1324.25232	-6.69458	1707.11292	1186.12256	7.45446	1483.05151	1416.50281	13.27271	1582.39087	1310.65503	126.99715	1499.21960	1324.75537	-118.51908	1490.54956	1353.64587	235.51463	1491.88245	1384.30859	-218.78082	1493.14526	1476.11475	116.66394	1493.76294	1494.24280	-73.16475	1488.52209	1506.40967	121.67516	1404.83972	1389.73303	274.64481	1353.32520	1453.20581	312.48859	1173.67346	1460.52930	214.05040	1163.63538	1361.94116	299.83722	1106.28064	1419.76599	309.22583	971.92523	1308.86792	289.62372	939.92480	1303.37000	338.01282	919.31934	1284.39954	290.67917	896.19525	1272.10315	275.58862	846.02002	1260.71057	288.36041	798.22711	1272.54578	365.85583	847.39819	1301.01514	330.96756	778.97485	1331.09558	283.45853	814.14136	1453.87598	-236.70148	1351.46118	1526.72595	-235.98067	1185.82397	1526.04639	-142.11304	1167.99609	1450.84875	-247.48712	1097.23621	1524.84863	-260.24777	998.76184	1428.89758	-252.66245	932.01776	1463.81458	-292.74646	901.24957	1416.31030	-254.55949	875.99097	1399.69080	-230.56105	829.10217	1395.37622	-233.39043	778.24347	1446.29602	-304.52490	800.86194	1449.25537	-271.22095	742.87799	1452.02295	-211.10916	745.73492	1540.22778	12.89265	1132.18933	1344.47632	196.56068	1065.32703	1357.52332	-156.94475	1079.98083	1376.41418	179.89081	684.43481	1318.50623	84.59831	582.96637	1362.96082	148.72350	526.12238	1383.32239	38.41904	524.74567	1373.19043	103.77682	309.28998	1474.53296	136.71765	84.96211	1464.47278	32.96376	107.03517	1540.76770	91.07101	50.85406	1305.50659	91.93725	40.14838	1369.28125	56.00771	78.07050	1297.87463	-163.07693	699.24963	1267.00317	-147.88033	551.82458	1270.47766	-37.14424	531.85828	1323.37646	-102.47771	346.46790	1504.05896	-117.23616	152.00575	1444.86035	-27.17167	163.13345	1548.98962	-43.93759	129.91136	1349.82410	-114.50048	65.67874	1386.98608	-70.07421	120.03845																																																																																																																															
3	0.017	1184.74133	-7.72162	1777.88757	1086.71436	5.27558	1654.85034	1318.88721	-6.35802	1707.16919	1180.39526	6.96443	1482.95447	1410.78137	13.58122	1583.09814	1304.50415	126.90563	1498.52368	1318.03137	-119.43422	1490.02136	1346.53967	236.74472	1492.07141	1378.22412	-215.56064	1492.43066	1470.28198	117.12938	1492.99316	1489.04041	-70.98891	1488.71411	1499.97229	122.59254	1403.74841	1383.22607	274.69214	1352.56946	1447.57776	313.59204	1173.52344	1453.26758	215.33513	1163.30884	1354.37231	299.33200	1105.45300	1411.74097	309.67825	971.77472	1302.63000	288.14200	940.47406	1295.20020	336.33011	919.34033	1276.63318	288.84399	894.77148	1265.69727	274.71301	843.78503	1257.13818	291.43631	793.55298	1265.08130	368.49075	848.12396	1297.13025	333.35474	777.75818	1327.37012	286.82352	815.29822	1448.42529	-236.24739	1351.82898	1521.75061	-235.49805	1186.00342	1519.50757	-141.45998	1168.19678	1447.36780	-245.61855	1096.38330	1520.28174	-260.17609	998.40057	1426.41772	-252.52496	932.11951	1456.94556	-292.07013	902.99329	1411.00562	-252.70926	875.54651	1394.34009	-227.97482	828.75934	1391.55066	-231.61855	778.19104	1441.78772	-303.69995	799.94257	1444.96460	-270.40955	742.71448	1448.12146	-211.45514	745.62042	1535.42188	13.78407	1131.43823	1339.32129	195.99663	1064.50952	1351.57959	-157.37720	1079.78430	1372.78979	179.37866	684.42999	1315.89526	85.71009	582.08441	1361.08850	148.98903	524.57623	1381.98157	38.42382	524.82996	1371.80127	104.15572	308.90796	1474.42346	136.58060	84.76092	1464.91125	32.77303	107.13579	1540.65808	90.76493	51.01329	1305.45886	91.86653	40.10078	1369.45447	56.29081	77.90044	1292.99744	-161.87978	699.36389	1260.32068	-149.21913	552.88947	1265.05078	-35.70731	532.35455	1310.82874	-101.12132	346.01007	1484.86597	-116.25171	144.79214	1426.34229	-26.84473	157.96458	1527.36804	-43.05117	122.18266	1327.73584	-112.70699	64.78521	1367.51245	-68.99250	116.01817																																																																																																																															
4	0.025	1178.64648	-6.45441	1777.63171	1081.21667	7.52068	1654.24524	1313.75293	-6.11448	1707.03894	1175.57581	6.75402	1482.12097	1405.01550	14.87247	1583.17810	1299.18884	127.53500	1498.21143	1312.71497	-117.51095	1490.43567	1341.51013	237.63832	1490.49426	1373.38110	-215.55670	1491.69067	1465.16150	117.62452	1492.92566	1483.94495	-71.40726	1488.53540	1495.26514	122.56898	1403.74573	1376.66736	274.92133	1352.49084	1440.54382	313.66565	1172.82202	1447.91650	216.78021	1163.35352	1346.91687	297.93591	1104.65588	1405.16663	310.92401	970.70355	1296.64563	287.06860	938.22113	1286.94324	335.46738	917.83502	1270.85400	287.66388	892.63623	1261.14441	276.36081	840.89404	1254.77710	291.59717	791.56799	1257.50317	367.21820	847.10919	1291.90137	337.23746	777.89301	1328.07751	291.30127	812.35748	1443.02161	-235.99774	1352.04443	1516.73828	-235.52856	1185.56311	1516.05518	-141.22357	1167.47485	1441.95276	-245.61813	1096.92993	1514.94202	-259.18686	998.51660	1422.50378	-250.89430	932.62317	1454.34167	-289.69836	902.35187	1405.71191	-251.58177	874.80023	1390.53992	-228.12117	828.92572	1386.83533	-230.66010	778.03229	1437.46326	-303.63382	801.12195	1441.82495	-270.99332	742.85559	1443.71094	-211.35349	745.81958	1529.77661	14.04737	1131.21448	1333.62793	197.13757	1064.46204	1346.14221	-156.92892	1079.18359	1369.10034	180.01134	683.77527	1313.64038	85.27174	581.05878	1358.50122	149.04747	524.22754	1379.99927	38.48220	523.45410	1370.14319	103.78226	308.15680	1474.42346	136.58060	84.76092	1464.46082	31.90680	107.32839	1540.16260	90.86771	50.33422	1305.60950	92.09915	40.09764	1369.79980	56.77155	77.95508	1286.20959	-162.66864	699.72449	1254.63367	-146.39845	552.54840	1258.88184	-36.66262	533.13062	1298.65735	-99.71228	344.78027	1465.61755	-115.08968	138.45663	1407.69116	-25.08034	153.30977	1507.45764	-40.72088	114.35478	1305.34424	-111.25587	63.51722	1346.77930	-68.43983	113.99342																																																																																																																															
